<svg xmlns="http://www.w3.org/2000/svg" xmlns:xlink="http://www.w3.org/1999/xlink" viewBox="0 0 91.5 100"><defs><style>.cls-1{fill:#ef0105;}.cls-2{fill:url(#未命名漸層_2);}.cls-3{fill:#fff;}</style><linearGradient id="未命名漸層_2" x1="92.89" y1="48.23" x2="-1.39" y2="51.77" gradientUnits="userSpaceOnUse"><stop offset="0" stop-color="#ef0105"/><stop offset="1" stop-color="#ffd2ad"/></linearGradient></defs><title>contact</title><g id="圖層_2" data-name="圖層 2"><g id="主要"><rect class="cls-1" x="2.86" y="2.86" width="85.78" height="94.28" rx="8.53" ry="8.53"/><path class="cls-2" d="M80.11,100H11.39A11.4,11.4,0,0,1,0,88.61V11.39A11.4,11.4,0,0,1,11.39,0H80.11A11.4,11.4,0,0,1,91.5,11.39V88.61A11.4,11.4,0,0,1,80.11,100ZM11.39,5.72a5.67,5.67,0,0,0-5.67,5.67V88.61a5.67,5.67,0,0,0,5.67,5.67H80.11a5.68,5.68,0,0,0,5.67-5.67V11.39a5.68,5.68,0,0,0-5.67-5.67Z"/><path class="cls-3" d="M40.46,40.39A2.47,2.47,0,1,0,38,37.92,2.47,2.47,0,0,0,40.46,40.39Z"/><path class="cls-3" d="M54.62,37.92a2.47,2.47,0,1,0-2.47,2.47A2.47,2.47,0,0,0,54.62,37.92Z"/><path class="cls-3" d="M72,40.25a9.33,9.33,0,0,0-7.76-9.37,17.5,17.5,0,0,0-17-13.47H45.34a17.48,17.48,0,0,0-17,13.46,9.53,9.53,0,0,0,.49,18.82H29a1.46,1.46,0,0,0,1.24-.7,1.38,1.38,0,0,0,.3-1V34.86c0-.33,0-.67,0-1A18.39,18.39,0,0,0,41,26.45a18.2,18.2,0,0,0,11.86,4.33A18.5,18.5,0,0,0,60.69,29a13.75,13.75,0,0,1,1.41,5.84V48a16.32,16.32,0,0,1-4.52,10.71A13.33,13.33,0,0,1,51,62a4.85,4.85,0,1,0-.18,3.12A17.53,17.53,0,0,0,64.63,49.79v-.22A9.37,9.37,0,0,0,72,40.25ZM46.28,65.18a1.93,1.93,0,1,1,1.93-1.93A1.93,1.93,0,0,1,46.28,65.18ZM23.48,40.25A6.49,6.49,0,0,1,27.91,34c0,.3,0,.6,0,.9,0,4.32,0,7.56-.05,11.67A6.51,6.51,0,0,1,23.48,40.25Zm29.35-12.4a15.35,15.35,0,0,1-11.12-4.72,1.48,1.48,0,0,0-2.35.32,15.41,15.41,0,0,1-8.07,7.09,16.19,16.19,0,0,1,3.75-6A15.28,15.28,0,0,1,45.34,20h1.93a15.33,15.33,0,0,1,10.31,4.53,15.92,15.92,0,0,1,1.61,1.91A15.45,15.45,0,0,1,52.83,27.85Zm11.82,18.7.08-10.84v-.85c0-.29,0-.59,0-.89a6.69,6.69,0,0,1,0,12.58Z"/><path class="cls-3" d="M54.16,47.51a1.47,1.47,0,1,0-2.83-.79c-.5,1.76-2.62,3.05-5,3.05s-4.55-1.29-5.05-3.05a1.46,1.46,0,1,0-2.82.79c.86,3.06,4.1,5.19,7.87,5.19S53.3,50.57,54.16,47.51Z"/><path class="cls-3" d="M26.14,85.51c-.27.18-.51.33-.73.45a5.81,5.81,0,0,1-.56.28,4.45,4.45,0,0,1-1.62.29,3.27,3.27,0,0,1-2.63-1.16,4.74,4.74,0,0,1-1-3.11,4.43,4.43,0,0,1,1-3,3.3,3.3,0,0,1,2.61-1.11,4,4,0,0,1,1.55.27,3.44,3.44,0,0,1,.55.27c.21.12.43.26.68.43l-.4,1a5.08,5.08,0,0,0-2.33-.69,1.71,1.71,0,0,0-1.43.73,3.46,3.46,0,0,0-.6,2.14,3.85,3.85,0,0,0,.6,2.24,1.68,1.68,0,0,0,1.4.77,4.3,4.3,0,0,0,1.3-.18,8.84,8.84,0,0,0,1.23-.58Z"/><path class="cls-3" d="M23.23,86.65a3.39,3.39,0,0,1-2.72-1.21,4.9,4.9,0,0,1-1-3.18,4.55,4.55,0,0,1,1-3.08A3.42,3.42,0,0,1,23.21,78a4.05,4.05,0,0,1,1.6.28,4,4,0,0,1,.56.27c.21.12.44.27.68.44l.08.06-.48,1.17-.12-.06a4.93,4.93,0,0,0-2.27-.67,1.58,1.58,0,0,0-1.33.69,3.28,3.28,0,0,0-.58,2.06,3.69,3.69,0,0,0,.58,2.17,1.56,1.56,0,0,0,1.3.72A4.14,4.14,0,0,0,24.5,85a7.51,7.51,0,0,0,1.2-.57l.12-.06.47,1.22-.08,0c-.27.18-.52.33-.74.45a4.45,4.45,0,0,1-.58.29A4.38,4.38,0,0,1,23.23,86.65Zm0-8.39a3.22,3.22,0,0,0-2.52,1.07,4.35,4.35,0,0,0-.94,2.93,4.67,4.67,0,0,0,.94,3,3.18,3.18,0,0,0,2.54,1.12,4.11,4.11,0,0,0,1.57-.28,3.91,3.91,0,0,0,.55-.27c.2-.11.41-.24.65-.4l-.31-.78a7.3,7.3,0,0,1-1.12.52,4.25,4.25,0,0,1-1.34.19,1.77,1.77,0,0,1-1.49-.83,3.88,3.88,0,0,1-.63-2.3,3.56,3.56,0,0,1,.63-2.21,1.82,1.82,0,0,1,1.52-.78,5.07,5.07,0,0,1,2.27.64l.31-.76-.58-.37c-.21-.11-.39-.2-.54-.26A4,4,0,0,0,23.21,78.26Z"/><path class="cls-3" d="M28.55,85.27a4.74,4.74,0,0,1-.93-3,4.49,4.49,0,0,1,.93-2.93,3.58,3.58,0,0,1,5.33,0,4.49,4.49,0,0,1,.93,2.93,4.74,4.74,0,0,1-.93,3,3.19,3.19,0,0,1-2.66,1.26A3.24,3.24,0,0,1,28.55,85.27Zm1.18-.81a1.73,1.73,0,0,0,3,0,4.17,4.17,0,0,0,.53-2.2,3.63,3.63,0,0,0-.54-2.12,1.7,1.7,0,0,0-1.48-.78,1.68,1.68,0,0,0-1.49.79,3.66,3.66,0,0,0-.54,2.11A4.07,4.07,0,0,0,29.73,84.46Z"/><path class="cls-3" d="M31.22,86.65a3.36,3.36,0,0,1-2.76-1.31h0a4.8,4.8,0,0,1-1-3.08,4.64,4.64,0,0,1,1-3,3.7,3.7,0,0,1,5.51,0,4.64,4.64,0,0,1,1,3,4.8,4.8,0,0,1-1,3.08A3.3,3.3,0,0,1,31.22,86.65ZM28.65,85.2a3.14,3.14,0,0,0,2.57,1.21,3.09,3.09,0,0,0,2.56-1.21,4.61,4.61,0,0,0,.91-2.94,4.41,4.41,0,0,0-.9-2.86,3.47,3.47,0,0,0-5.14,0,4.36,4.36,0,0,0-.91,2.86,4.67,4.67,0,0,0,.91,2.94Zm2.57.23a1.81,1.81,0,0,1-1.59-.91h0a4.3,4.3,0,0,1-.54-2.26,3.83,3.83,0,0,1,.55-2.18,1.92,1.92,0,0,1,3.17,0,3.8,3.8,0,0,1,.56,2.19,4.3,4.3,0,0,1-.55,2.26A1.82,1.82,0,0,1,31.22,85.43Zm-1.39-1a1.6,1.6,0,0,0,2.77,0,3.93,3.93,0,0,0,.52-2.13,3.63,3.63,0,0,0-.52-2.06,1.59,1.59,0,0,0-1.38-.72,1.56,1.56,0,0,0-1.39.74,3.58,3.58,0,0,0-.52,2A4.08,4.08,0,0,0,29.83,84.4Z"/><path class="cls-3" d="M37.05,86.37V78.3H38.3l3.27,5.23V78.3h1.34v8.07H41.79L38.41,81v5.39Z"/><path class="cls-3" d="M43,86.49H41.72l0,0-3.15-5v5.09h-1.6V78.18h1.43l0,0,3.05,4.88V78.18H43Zm-1.18-.24h.94V78.42h-1.1v5.52l-3.46-5.52H37.17v7.83h1.12V80.57Z"/><path class="cls-3" d="M46.8,86.37v-6.9H44.64V78.3h5.83v1.17H48.31v6.9Z"/><path class="cls-3" d="M48.43,86.49H46.68v-6.9H44.52V78.18h6.06v1.41H48.43Zm-1.51-.24h1.27v-6.9h2.16v-.93H44.76v.93h2.16Z"/><path class="cls-3" d="M50.67,86.37l2.91-8.07h1.35l3,8.07H56.34l-.72-2H52.89l-.72,2Zm2.62-3.21h1.92l-1-2.73Z"/><path class="cls-3" d="M58.15,86.49h-1.9l-.71-2H53l-.71,2H50.5l.06-.16,2.93-8.15H55l0,.08Zm-1.73-.24h1.39l-3-7.83H53.66l-2.82,7.83h1.25l.71-2h2.91Zm-1-3H53.12l1.12-3.21ZM53.45,83H55l-.8-2.25Z"/><path class="cls-3" d="M65.65,85.51c-.28.18-.52.33-.74.45a5.81,5.81,0,0,1-.56.28,4.37,4.37,0,0,1-1.62.29,3.29,3.29,0,0,1-2.63-1.16,4.8,4.8,0,0,1-1-3.11,4.48,4.48,0,0,1,1-3,3.34,3.34,0,0,1,2.62-1.11,4,4,0,0,1,1.55.27,3.91,3.91,0,0,1,.55.27c.2.12.43.26.67.43l-.4,1a5,5,0,0,0-2.33-.69,1.7,1.7,0,0,0-1.42.73,3.4,3.4,0,0,0-.61,2.14,3.78,3.78,0,0,0,.61,2.24,1.66,1.66,0,0,0,1.39.77A4.37,4.37,0,0,0,64,85.09a9.41,9.41,0,0,0,1.22-.58Z"/><path class="cls-3" d="M62.73,86.65A3.39,3.39,0,0,1,60,85.44a4.9,4.9,0,0,1-1-3.18,4.55,4.55,0,0,1,1-3.08A3.45,3.45,0,0,1,62.72,78a4,4,0,0,1,1.59.28,4.61,4.61,0,0,1,.57.27l.68.44.07.06-.48,1.17L65,80.18a4.9,4.9,0,0,0-2.27-.67,1.58,1.58,0,0,0-1.33.69,3.34,3.34,0,0,0-.58,2.06,3.76,3.76,0,0,0,.58,2.17,1.56,1.56,0,0,0,1.3.72A4.1,4.1,0,0,0,64,85a7.51,7.51,0,0,0,1.2-.57l.12-.06.47,1.22-.08,0c-.27.18-.52.33-.74.45a4.45,4.45,0,0,1-.58.29A4.38,4.38,0,0,1,62.73,86.65Zm0-8.39a3.23,3.23,0,0,0-2.53,1.07,4.35,4.35,0,0,0-.94,2.93,4.67,4.67,0,0,0,.94,3,3.18,3.18,0,0,0,2.54,1.12,4.19,4.19,0,0,0,1.58-.28,4.49,4.49,0,0,0,.54-.27c.2-.11.41-.24.65-.4l-.3-.78a7.79,7.79,0,0,1-1.13.52,4.25,4.25,0,0,1-1.34.19,1.77,1.77,0,0,1-1.49-.83,3.88,3.88,0,0,1-.63-2.3,3.56,3.56,0,0,1,.63-2.21,1.83,1.83,0,0,1,1.52-.78,5,5,0,0,1,2.27.64l.31-.76c-.21-.14-.4-.27-.58-.37s-.39-.2-.54-.26A4,4,0,0,0,62.72,78.26Z"/><path class="cls-3" d="M69,86.37v-6.9H66.8V78.3h5.82v1.17H70.46v6.9Z"/><path class="cls-3" d="M70.58,86.49H68.83v-6.9H66.68V78.18h6.06v1.41H70.58Zm-1.51-.24h1.27v-6.9H72.5v-.93H66.92v.93h2.15Z"/></g></g></svg>