<svg xmlns="http://www.w3.org/2000/svg" xmlns:xlink="http://www.w3.org/1999/xlink" viewBox="0 0 216.3 216.89"><defs><style>.cls-1{fill:#fff;}.cls-2{fill:url(#未命名漸層_2);}.cls-3{fill:#ef0105;}</style><linearGradient id="未命名漸層_2" y1="108.74" x2="216.3" y2="108.74" gradientUnits="userSpaceOnUse"><stop offset="0" stop-color="#ef0105"/><stop offset="1" stop-color="#ffd2ad"/></linearGradient></defs><title>成功</title><g id="圖層_2" data-name="圖層 2"><g id="圖層_1-2" data-name="圖層 1"><circle class="cls-1" cx="108.15" cy="108.74" r="105.15"/><path class="cls-2" d="M108.15,216.89A108.16,108.16,0,1,1,216.3,108.74,108.28,108.28,0,0,1,108.15,216.89Zm0-210.31A102.16,102.16,0,1,0,210.3,108.74,102.28,102.28,0,0,0,108.15,6.58Z"/><path class="cls-3" d="M100.89,89.8A3.93,3.93,0,1,0,97,85.87,3.93,3.93,0,0,0,100.89,89.8Z"/><path class="cls-3" d="M123.42,85.87a3.93,3.93,0,1,0-3.93,3.93A3.93,3.93,0,0,0,123.42,85.87Z"/><path class="cls-3" d="M151.09,89.57c0-7.54-5.36-13.92-12.34-14.91a27.87,27.87,0,0,0-27-21.43h-3.06a27.85,27.85,0,0,0-27,21.41c-7,1-12.42,7.36-12.42,14.93,0,7.86,5.8,14.45,13.21,15h.18a2.36,2.36,0,0,0,2-1.11,2.18,2.18,0,0,0,.48-1.62V81c0-.53,0-1.07.08-1.6A29.2,29.2,0,0,0,101.7,67.62a29,29,0,0,0,18.87,6.89,29.36,29.36,0,0,0,12.51-2.81,22,22,0,0,1,2.23,9.3v20.87a26,26,0,0,1-7.2,17c-2.71,2.72-6.54,4.33-10.51,5.2a7.73,7.73,0,1,0-.29,5,27.89,27.89,0,0,0,22-24.33v-.35C146,103.13,151.09,96.9,151.09,89.57Zm-40.94,39.65a3.06,3.06,0,1,1,3.06-3.06A3.07,3.07,0,0,1,110.15,129.22ZM73.88,89.57a10.33,10.33,0,0,1,7-10c0,.48,0,1,0,1.44,0,6.87,0,12-.06,18.55A10.34,10.34,0,0,1,73.88,89.57Zm46.69-19.73a24.48,24.48,0,0,1-17.7-7.5,2.32,2.32,0,0,0-3.72.51A24.64,24.64,0,0,1,86.3,74.13a25.86,25.86,0,0,1,6-9.53c4-4,10.26-7.19,16.4-7.19h3.06c6.13,0,12.35,3.15,16.39,7.19a24.86,24.86,0,0,1,2.58,3.05A24.66,24.66,0,0,1,120.57,69.84Zm18.81,29.75.11-17.25V81c0-.47,0-1,0-1.42a10.65,10.65,0,0,1-.07,20Z"/><path class="cls-3" d="M122.68,101.12a2.33,2.33,0,0,0-4.49-1.27c-.8,2.82-4.18,4.86-8,4.86s-7.24-2-8-4.86a2.33,2.33,0,1,0-4.49,1.27c1.36,4.86,6.51,8.26,12.52,8.26S121.31,106,122.68,101.12Z"/><path class="cls-3" d="M76,156.56c.45.2.83.37,1.16.49s.59.22.79.28a5.21,5.21,0,0,0,1.65.24q2,0,2-1.65c0-.62-.5-1.2-1.5-1.73L78,153.12l-.73-.38a3.25,3.25,0,0,1-1.5-2.76,2.72,2.72,0,0,1,.28-1.24,2.66,2.66,0,0,1,.8-1,3.89,3.89,0,0,1,1.27-.64,5.66,5.66,0,0,1,1.66-.22,7.48,7.48,0,0,1,3.77,1.14L83,149.44a8.71,8.71,0,0,0-3.16-.8,2.23,2.23,0,0,0-1.29.36,1,1,0,0,0-.45.82c0,.59.51,1.12,1.52,1.61.83.39,1.48.71,1.94.95s.76.41.88.49a3.48,3.48,0,0,1,1.52,2.93,3.3,3.3,0,0,1-1.29,2.73,4.45,4.45,0,0,1-2.8.9A9,9,0,0,1,75.41,158Z"/><path class="cls-3" d="M87.48,155.09c0,1.67.77,2.5,2.33,2.5s2.33-.83,2.33-2.5v-7.93h2V155a4.67,4.67,0,0,1-7.8,3.22A4.38,4.38,0,0,1,85.24,155v-7.84h2.24Z"/><path class="cls-3" d="M105.73,157.93c-.41.27-.78.49-1.1.67a5.77,5.77,0,0,1-.84.41,6.44,6.44,0,0,1-2.42.44,4.86,4.86,0,0,1-3.92-1.74A7.13,7.13,0,0,1,96,153.07a6.61,6.61,0,0,1,1.44-4.48,4.94,4.94,0,0,1,3.9-1.66,6.15,6.15,0,0,1,2.32.39,8.9,8.9,0,0,1,.82.41,11.6,11.6,0,0,1,1,.64l-.59,1.45a7.52,7.52,0,0,0-3.47-1,2.56,2.56,0,0,0-2.14,1.1,5.09,5.09,0,0,0-.9,3.18,5.69,5.69,0,0,0,.9,3.34,2.5,2.5,0,0,0,2.08,1.16,6.38,6.38,0,0,0,1.95-.27,12.67,12.67,0,0,0,1.83-.87Z"/><path class="cls-3" d="M116.21,157.93c-.41.27-.78.49-1.1.67a5.77,5.77,0,0,1-.84.41,6.44,6.44,0,0,1-2.42.44,4.86,4.86,0,0,1-3.92-1.74,7.13,7.13,0,0,1-1.44-4.64,6.61,6.61,0,0,1,1.44-4.48,4.94,4.94,0,0,1,3.9-1.66,6.15,6.15,0,0,1,2.32.39,8.9,8.9,0,0,1,.82.41,11.6,11.6,0,0,1,1,.64l-.59,1.45a7.52,7.52,0,0,0-3.47-1,2.56,2.56,0,0,0-2.14,1.1,5.09,5.09,0,0,0-.9,3.18,5.69,5.69,0,0,0,.9,3.34,2.5,2.5,0,0,0,2.08,1.16,6.38,6.38,0,0,0,2-.27,12.67,12.67,0,0,0,1.83-.87Z"/><path class="cls-3" d="M117.62,159.21V147.16h6.79v1.74h-4.55v3h3.61v1.73h-3.61v3.85h4.88v1.73Z"/><path class="cls-3" d="M125.89,156.56c.45.2.83.37,1.16.49s.59.22.79.28a5.26,5.26,0,0,0,1.65.24q1.95,0,1.95-1.65c0-.62-.5-1.2-1.5-1.73l-2.07-1.07-.73-.38a3.25,3.25,0,0,1-1.5-2.76,2.72,2.72,0,0,1,.28-1.24,2.76,2.76,0,0,1,.8-1,3.89,3.89,0,0,1,1.27-.64,5.7,5.7,0,0,1,1.66-.22,7.48,7.48,0,0,1,3.78,1.14l-.6,1.39a8.71,8.71,0,0,0-3.16-.8,2.17,2.17,0,0,0-1.28.36,1,1,0,0,0-.46.82c0,.59.51,1.12,1.52,1.61.83.39,1.48.71,1.94.95s.76.41.88.49a3.48,3.48,0,0,1,1.52,2.93,3.32,3.32,0,0,1-1.28,2.73,4.49,4.49,0,0,1-2.8.9,9.07,9.07,0,0,1-4.45-1.41Z"/><path class="cls-3" d="M135,156.56c.44.2.83.37,1.15.49s.59.22.8.28a5.19,5.19,0,0,0,1.64.24q1.95,0,1.95-1.65c0-.62-.5-1.2-1.5-1.73L137,153.12l-.74-.38a3.25,3.25,0,0,1-1.5-2.76,2.86,2.86,0,0,1,.28-1.24,2.79,2.79,0,0,1,.81-1,3.93,3.93,0,0,1,1.26-.64,5.77,5.77,0,0,1,1.67-.22,7.48,7.48,0,0,1,3.77,1.14l-.59,1.39a8.75,8.75,0,0,0-3.17-.8,2.22,2.22,0,0,0-1.28.36,1,1,0,0,0-.45.82c0,.59.5,1.12,1.52,1.61.83.39,1.47.71,1.94.95s.76.41.88.49a3.47,3.47,0,0,1,1.51,2.93,3.29,3.29,0,0,1-1.28,2.73,4.47,4.47,0,0,1-2.8.9,9.07,9.07,0,0,1-4.45-1.41Z"/><rect class="cls-3" x="107.65" y="183.34" width="1" height="30.55"/><rect class="cls-3" x="107.65" width="1" height="30.55"/><rect class="cls-3" x="1.21" y="106.44" width="30.55" height="1"/><rect class="cls-3" x="184.54" y="106.44" width="30.55" height="1"/></g></g></svg>