<svg xmlns="http://www.w3.org/2000/svg" xmlns:xlink="http://www.w3.org/1999/xlink" viewBox="0 0 221.41 58.33"><defs><style>.cls-1{fill:#fff;}.cls-2{fill:#ef0105;}.cls-3{fill:url(#未命名漸層_2);}</style><linearGradient id="未命名漸層_2" x1="6.2" y1="-14.75" x2="215.21" y2="73.08" gradientUnits="userSpaceOnUse"><stop offset="0" stop-color="#ef0105"/><stop offset="1" stop-color="#ffd2ad"/></linearGradient></defs><title>contact us</title><g id="圖層_2" data-name="圖層 2"><g id="圖層_1-2" data-name="圖層 1"><rect class="cls-1" x="3.47" y="3.47" width="217.94" height="51.39"/><path class="cls-2" d="M44.38,37.67c-.71.46-1.34.85-1.89,1.16a13.79,13.79,0,0,1-1.46.72,11.21,11.21,0,0,1-4.19.75,8.43,8.43,0,0,1-6.8-3,12.35,12.35,0,0,1-2.5-8A11.45,11.45,0,0,1,30,21.49a8.58,8.58,0,0,1,6.77-2.88,10.59,10.59,0,0,1,4,.68,12.53,12.53,0,0,1,1.43.71A20.29,20.29,0,0,1,44,21.11l-1,2.5a13.13,13.13,0,0,0-6-1.78,4.44,4.44,0,0,0-3.69,1.91,8.78,8.78,0,0,0-1.57,5.51A9.79,9.79,0,0,0,33.24,35a4.28,4.28,0,0,0,3.6,2,10.91,10.91,0,0,0,3.38-.47,21.24,21.24,0,0,0,3.16-1.5Z"/><path class="cls-2" d="M48.11,37a12.19,12.19,0,0,1-2.41-7.79,11.65,11.65,0,0,1,2.41-7.58A8.46,8.46,0,0,1,55,18.61a8.48,8.48,0,0,1,6.89,3.06,11.65,11.65,0,0,1,2.41,7.58A12.19,12.19,0,0,1,61.88,37,8.28,8.28,0,0,1,55,40.3,8.36,8.36,0,0,1,48.11,37Zm3-2.09a4.48,4.48,0,0,0,7.7,0,10.69,10.69,0,0,0,1.38-5.7,9.46,9.46,0,0,0-1.39-5.48,4.68,4.68,0,0,0-7.69,0,9.57,9.57,0,0,0-1.37,5.45A10.69,10.69,0,0,0,51.14,35Z"/><path class="cls-2" d="M67.58,39.89V19H70.8l8.45,13.53V19h3.48V39.89H79.82L71.08,26V39.89Z"/><path class="cls-2" d="M90.27,39.89V22.05H84.7V19H99.76v3H94.18V39.89Z"/><path class="cls-2" d="M97.78,39.89,105.3,19h3.5l7.89,20.88h-4.26l-1.84-5.26h-7.08l-1.84,5.26Zm6.76-8.29h5L107,24.52Z"/><path class="cls-2" d="M134,37.67c-.71.46-1.34.85-1.89,1.16a13.79,13.79,0,0,1-1.46.72,11.21,11.21,0,0,1-4.19.75,8.41,8.41,0,0,1-6.79-3,12.29,12.29,0,0,1-2.51-8,11.4,11.4,0,0,1,2.51-7.76,8.55,8.55,0,0,1,6.76-2.88,10.59,10.59,0,0,1,4,.68,12.53,12.53,0,0,1,1.43.71,20.29,20.29,0,0,1,1.73,1.11l-1,2.5a13.13,13.13,0,0,0-6-1.78,4.44,4.44,0,0,0-3.69,1.91,8.78,8.78,0,0,0-1.57,5.51A9.79,9.79,0,0,0,122.86,35a4.28,4.28,0,0,0,3.6,2,10.91,10.91,0,0,0,3.38-.47,20.78,20.78,0,0,0,3.16-1.5Z"/><path class="cls-2" d="M140,39.89V22.05h-5.57V19h15.06v3H144V39.89Z"/><path class="cls-2" d="M162.42,32.76c0,2.88,1.35,4.31,4,4.31s4-1.43,4-4.31V19H174V32.6a7.68,7.68,0,0,1-2,5.63,9.06,9.06,0,0,1-11.53-.06,7.6,7.6,0,0,1-2-5.57V19h3.88Z"/><path class="cls-2" d="M177.51,35.29c.77.36,1.44.64,2,.86s1,.38,1.38.49a9.3,9.3,0,0,0,2.85.4c2.26,0,3.38-.95,3.38-2.85,0-1.08-.86-2.08-2.6-3l-3.58-1.85-1.27-.65a5.66,5.66,0,0,1-2.6-4.79,4.72,4.72,0,0,1,.49-2.15A4.8,4.8,0,0,1,179,20.06,6.81,6.81,0,0,1,181.14,19a9.92,9.92,0,0,1,2.88-.4,13,13,0,0,1,6.55,2l-1,2.41a15,15,0,0,0-5.48-1.38,3.82,3.82,0,0,0-2.22.63,1.72,1.72,0,0,0-.78,1.4c0,1,.88,2,2.63,2.79,1.44.69,2.56,1.24,3.36,1.66s1.31.7,1.52.84A6,6,0,0,1,191.19,34,5.7,5.7,0,0,1,189,38.7a7.69,7.69,0,0,1-4.85,1.57,15.72,15.72,0,0,1-7.7-2.44Z"/><path class="cls-3" d="M221.41,58.33H0V0H221.41ZM6.94,51.39H214.47V6.94H6.94Z"/></g></g></svg>