<svg xmlns="http://www.w3.org/2000/svg" xmlns:xlink="http://www.w3.org/1999/xlink" viewBox="0 0 221.41 58.33"><defs><style>.cls-1{fill:#fff;}.cls-2{fill:#ef0105;}.cls-3{fill:url(#未命名漸層_2);}</style><linearGradient id="未命名漸層_2" x1="6.2" y1="-14.75" x2="215.21" y2="73.08" gradientUnits="userSpaceOnUse"><stop offset="0" stop-color="#ef0105"/><stop offset="1" stop-color="#ffd2ad"/></linearGradient></defs><title>資產 1</title><g id="圖層_2" data-name="圖層 2"><g id="圖層_1-2" data-name="圖層 1"><rect class="cls-1" x="3.47" y="3.47" width="217.94" height="51.39"/><path class="cls-2" d="M36.2,19c3.38-.12,5.43-.19,6.16-.19a10.7,10.7,0,0,1,7.92,2.88,10.25,10.25,0,0,1,2.82,7.58A10.68,10.68,0,0,1,50.22,37a10.41,10.41,0,0,1-7.86,3l-1.73,0-4.43-.11Zm3.88,17.81c1.31.07,2.07.1,2.25.1a6.19,6.19,0,0,0,4.76-2.13A7.89,7.89,0,0,0,49,29.28a7.53,7.53,0,0,0-1.88-5.35,6.14,6.14,0,0,0-4.82-2.07c-.79,0-1.54,0-2.25.1Z"/><path class="cls-2" d="M57.83,37a12.19,12.19,0,0,1-2.41-7.79,11.65,11.65,0,0,1,2.41-7.58,8.46,8.46,0,0,1,6.88-3.06,8.47,8.47,0,0,1,6.89,3.06A11.65,11.65,0,0,1,74,29.25,12.19,12.19,0,0,1,71.6,37a8.26,8.26,0,0,1-6.89,3.26A8.37,8.37,0,0,1,57.83,37Zm3-2.09a4.48,4.48,0,0,0,7.7,0,10.76,10.76,0,0,0,1.37-5.7,9.46,9.46,0,0,0-1.39-5.48,4.44,4.44,0,0,0-3.84-2,4.39,4.39,0,0,0-3.84,2,9.56,9.56,0,0,0-1.38,5.45A10.67,10.67,0,0,0,60.87,35Z"/><path class="cls-2" d="M80.3,39.89,74.89,19h3.76l3.66,14.53,2.63-9.89h3l2.32,9.89L93.83,19h3.79L92.17,39.89H88.79l-2.54-9.83-2.53,9.83Z"/><path class="cls-2" d="M99.43,39.89V19h3.22l8.46,13.53V19h3.47V39.89h-2.91L102.94,26V39.89Z"/><path class="cls-2" d="M118.53,39.89V19h3.88V36.89h8.64v3Z"/><path class="cls-2" d="M133.86,37a12.25,12.25,0,0,1-2.41-7.79,11.71,11.71,0,0,1,2.41-7.58,9.29,9.29,0,0,1,13.78,0,11.71,11.71,0,0,1,2.41,7.58A12.25,12.25,0,0,1,147.64,37a8.28,8.28,0,0,1-6.89,3.26A8.38,8.38,0,0,1,133.86,37Zm3-2.09a4.48,4.48,0,0,0,7.7,0,10.67,10.67,0,0,0,1.38-5.7,9.46,9.46,0,0,0-1.4-5.48,4.67,4.67,0,0,0-7.68,0,9.56,9.56,0,0,0-1.38,5.45A10.67,10.67,0,0,0,136.9,35Z"/><path class="cls-2" d="M150.52,39.89,158,19h3.51l7.88,20.88h-4.25l-1.85-5.26h-7.07l-1.85,5.26Zm6.76-8.29h5l-2.5-7.08Z"/><path class="cls-2" d="M171.24,19c3.38-.12,5.43-.19,6.17-.19a10.7,10.7,0,0,1,7.92,2.88,10.28,10.28,0,0,1,2.81,7.58A10.68,10.68,0,0,1,185.26,37a10.4,10.4,0,0,1-7.85,3l-1.74,0-4.43-.11Zm3.88,17.81c1.32.07,2.07.1,2.25.1a6.19,6.19,0,0,0,4.76-2.13,7.84,7.84,0,0,0,1.94-5.51,7.57,7.57,0,0,0-1.87-5.35,6.18,6.18,0,0,0-4.83-2.07c-.79,0-1.54,0-2.25.1Z"/><path class="cls-3" d="M221.41,58.33H0V0H221.41ZM6.94,51.39H214.47V6.94H6.94Z"/></g></g></svg>