<svg xmlns="http://www.w3.org/2000/svg" xmlns:xlink="http://www.w3.org/1999/xlink" viewBox="0 0 129.22 95.79"><defs><style>.cls-1{fill:#fff;}.cls-2{fill:url(#未命名漸層_3);}.cls-3{fill:url(#未命名漸層_3-2);}.cls-4{fill:url(#未命名漸層_3-3);}.cls-5{fill:url(#未命名漸層_3-4);}.cls-6{fill:url(#未命名漸層_3-5);}</style><linearGradient id="未命名漸層_3" x1="105.22" y1="25.2" x2="11.64" y2="80.86" gradientUnits="userSpaceOnUse"><stop offset="0" stop-color="#ffd2ad"/><stop offset="1" stop-color="#ef0105"/></linearGradient><linearGradient id="未命名漸層_3-2" x1="55.68" y1="43.35" x2="281.34" y2="-44.69" xlink:href="#未命名漸層_3"/><linearGradient id="未命名漸層_3-3" x1="52.98" y1="29.33" x2="46.47" y2="6.94" gradientTransform="matrix(1, -0.03, 0.03, 1, -11.48, 49.03)" xlink:href="#未命名漸層_3"/><linearGradient id="未命名漸層_3-4" x1="56.14" y1="163.55" x2="49.63" y2="141.17" gradientTransform="translate(24.89 -90.61) rotate(3.07)" xlink:href="#未命名漸層_3"/><linearGradient id="未命名漸層_3-5" x1="112.93" y1="11.89" x2="106.42" y2="-10.5" gradientTransform="matrix(1, -0.03, 0.03, 1, -11.48, 49.03)" xlink:href="#未命名漸層_3"/></defs><title>logo 2</title><g id="圖層_2" data-name="圖層 2"><g id="主要"><path class="cls-1" d="M52.08,95.79C29,95.79,10.16,85.1,3,67.88a39.47,39.47,0,0,1-2-6.19,20.51,20.51,0,0,1-1-6.46C.07,37.82,21.58,18,52.29,7.13,65.43,2.46,78.65,0,90.5,0c17,0,29.36,5.11,34.71,14.38a20.92,20.92,0,0,1,1.59,3.41,18.39,18.39,0,0,1,.61,2.1c7.94,25.42-11,55.77-43.2,69.25a84.19,84.19,0,0,1-32.12,6.65Z"/><path class="cls-2" d="M120.05,21.88c7,21.65-9.8,48.11-38.78,60.23C51.13,94.71,19.22,87,10,65a33,33,0,0,1-1.69-5.3,33.78,33.78,0,0,1-.68-4.36c0-13.77,19.65-31.2,47.22-41C83.94,4,111.49,5.86,118.62,18.19c.17.38.34.75.5,1.14Q119.65,20.59,120.05,21.88Z"/><path class="cls-3" d="M119.62,20.36a11.44,11.44,0,0,1,.43,1.52c3.17,14.14-17.25,33.5-46.9,44C42.43,76.8,13.42,74.09,8.37,59.85l-.07-.2a13.26,13.26,0,0,1-.68-4.36c0-13.77,19.65-31.2,47.22-41C83.94,4,111.49,5.86,118.62,18.19A13.32,13.32,0,0,1,119.62,20.36Z"/><path class="cls-4" d="M36.72,70c-1.17,1.23-13.35-3.83-16.63-13.36s.69-18.07,2.44-19.93,4.77-1.34,4.84,1.07-2.8,7.3-.86,12.06,11.46.87,10.1-4.51-5.68-9.46-4-11.91,8.43.35,13.5,9.23,6,19.08,3.63,21.56-6.74-4-8.64-7.58-7.28-2.19-9.62.28-.77,4.53.77,6S38.47,68.1,36.72,70Z"/><path class="cls-5" d="M51,23.18c4.8.26,4.92,9.3,5.83,14.77S60.92,52,66.42,50.51,73,40,69.66,35s-9.5-13.75-4.53-16.5,13,10.09,14.11,17.62c1.07,7.14.33,16.28-9.54,20.57S49,49,47.19,38.64,49.23,23.09,51,23.18Z"/><path class="cls-6" d="M96,39c-5.12,4.22-11.89-.75-14.15,1.78-1.44,1.59,1.29,6,6.82,7.44s12.89-1.25,17-7.27c5.07-7.42,2.58-14.13-1.36-16.9C98.86,20.27,87.4,23.91,85.46,20s9.05-.5,8.7-4.54-7.79-5.35-13.53-3.12-6.2,8.45-4.14,11,5.83,3,10.13,2.91c4.9-.1,9.65,1.31,11.15,4.27A6.59,6.59,0,0,1,96,39Z"/></g></g></svg>