<svg xmlns="http://www.w3.org/2000/svg" xmlns:xlink="http://www.w3.org/1999/xlink" viewBox="0 0 80 56.52"><defs><style>.cls-1{fill:url(#未命名漸層_3);}.cls-2{fill:url(#未命名漸層_3-2);}.cls-3{fill:url(#未命名漸層_3-3);}.cls-4{fill:url(#未命名漸層_3-4);}.cls-5{fill:url(#未命名漸層_3-5);}</style><linearGradient id="未命名漸層_3" x1="68.49" y1="12.34" x2="2.82" y2="51.39" gradientUnits="userSpaceOnUse"><stop offset="0" stop-color="#ffd2ad"/><stop offset="1" stop-color="#ef0105"/></linearGradient><linearGradient id="未命名漸層_3-2" x1="33.72" y1="25.07" x2="192.07" y2="-36.7" xlink:href="#未命名漸層_3"/><linearGradient id="未命名漸層_3-3" x1="35" y1="-6.16" x2="30.43" y2="-21.87" gradientTransform="matrix(1, -0.03, 0.03, 1, -10.45, 55.72)" xlink:href="#未命名漸層_3"/><linearGradient id="未命名漸層_3-4" x1="29.87" y1="149.58" x2="25.3" y2="133.87" gradientTransform="translate(23.5 -103.18) rotate(3.07)" xlink:href="#未命名漸層_3"/><linearGradient id="未命名漸層_3-5" x1="77.07" y1="-18.4" x2="72.5" y2="-34.11" gradientTransform="matrix(1, -0.03, 0.03, 1, -10.45, 55.72)" xlink:href="#未命名漸層_3"/></defs><title>logo</title><g id="圖層_2" data-name="圖層 2"><g id="標示"><path class="cls-1" d="M78.89,10C83.79,25.2,72,43.77,51.68,52.27c-21.15,8.84-43.54,3.45-50-12A22,22,0,0,1,.48,36.51,22.64,22.64,0,0,1,0,33.45C0,23.79,13.79,11.56,33.14,4.7,53.55-2.55,72.89-1.23,77.89,7.42c.12.26.24.53.35.8A18.15,18.15,0,0,1,78.89,10Z"/><path class="cls-2" d="M78.59,8.94a6.53,6.53,0,0,1,.3,1.07C81.11,19.93,66.79,33.51,46,40.9,24.43,48.55,4.07,46.65.53,36.65l-.05-.14A9.25,9.25,0,0,1,0,33.45C0,23.79,13.79,11.56,33.14,4.7,53.55-2.55,72.89-1.23,77.89,7.42A9.11,9.11,0,0,1,78.59,8.94Z"/><path class="cls-3" d="M20.42,43.74c-.82.87-9.36-2.68-11.67-9.37s.48-12.68,1.71-14,3.35-.94,3.4.75-2,5.12-.6,8.46,8,.61,7.08-3.16-4-6.64-2.77-8.37,5.92.26,9.47,6.49,4.19,13.38,2.55,15.12-4.72-2.82-6.06-5.31-5.11-1.55-6.75.19-.54,3.18.54,4.21S21.65,42.44,20.42,43.74Z"/><path class="cls-4" d="M30.46,10.92c3.37.18,3.45,6.53,4.09,10.36s2.85,9.88,6.71,8.82,4.62-7.36,2.28-10.87S36.87,9.58,40.36,7.65s9.11,7.08,9.9,12.36c.74,5,.23,11.43-6.7,14.44S29.07,29,27.77,21.76,29.2,10.85,30.46,10.92Z"/><path class="cls-5" d="M62,22c-3.59,3-8.34-.53-9.93,1.24-1,1.13.91,4.22,4.79,5.23s9-.88,11.93-5.1c3.56-5.21,1.81-9.92-1-11.86C64,8.88,56,11.43,54.62,8.68s6.35-.35,6.1-3.19-5.46-3.75-9.49-2.18S46.88,9.24,48.33,11s4.09,2.11,7.1,2c3.44-.07,6.77.92,7.83,3A4.63,4.63,0,0,1,62,22Z"/></g></g></svg>