<svg xmlns="http://www.w3.org/2000/svg" xmlns:xlink="http://www.w3.org/1999/xlink" viewBox="0 0 211.41 58.33"><defs><style>.cls-1{fill:#fff;}.cls-2{fill:#ef0105;}.cls-3{fill:url(#未命名漸層_2);}</style><linearGradient id="未命名漸層_2" x1="5.45" y1="-12.96" x2="205.96" y2="71.3" gradientUnits="userSpaceOnUse"><stop offset="0" stop-color="#ef0105"/><stop offset="1" stop-color="#ffd2ad"/></linearGradient></defs><title>products</title><g id="圖層_2" data-name="圖層 2"><g id="主要"><rect class="cls-1" x="3.47" y="3.47" width="204.47" height="51.39"/><path class="cls-2" d="M36.75,39.89V19c1.9-.12,3.73-.19,5.51-.19a9.13,9.13,0,0,1,5.84,1.65,5.77,5.77,0,0,1,2,4.77,5.77,5.77,0,0,1-2.07,4.67,7.53,7.53,0,0,1-4.94,1.59c-.42,0-.85,0-1.27,0l-1.3-.11v8.54Zm3.82-11.42a14,14,0,0,0,2.25.12c2.28,0,3.41-1.13,3.41-3.38s-1.33-3.41-4-3.41h-.68l-1,.05Z"/><path class="cls-2" d="M52.43,39.89V19c2.69-.12,4.51-.19,5.45-.19q7.86,0,7.86,6.05a5.41,5.41,0,0,1-3.85,5.6L68,39.89H63.39L57.88,31h-.94L56.25,31v8.92Zm3.82-11.8,1.17.05h.93q3.46,0,3.47-3.19T57.91,21.8h-.67l-1,.05Z"/><path class="cls-2" d="M71.84,37a12.19,12.19,0,0,1-2.41-7.79,11.65,11.65,0,0,1,2.41-7.58,9.28,9.28,0,0,1,13.77,0A11.65,11.65,0,0,1,88,29.25,12.19,12.19,0,0,1,85.61,37a8.26,8.26,0,0,1-6.88,3.26A8.38,8.38,0,0,1,71.84,37Zm3-2.09a4.48,4.48,0,0,0,7.7,0A10.76,10.76,0,0,0,84,29.25a9.46,9.46,0,0,0-1.39-5.48,4.67,4.67,0,0,0-7.68,0,9.56,9.56,0,0,0-1.38,5.45A10.67,10.67,0,0,0,74.88,35Z"/><path class="cls-2" d="M91.31,19c3.38-.12,5.44-.19,6.17-.19a10.7,10.7,0,0,1,7.92,2.88,10.24,10.24,0,0,1,2.81,7.58A10.68,10.68,0,0,1,105.33,37a10.4,10.4,0,0,1-7.85,3l-1.74,0-4.43-.11Zm3.88,17.81c1.32.07,2.07.1,2.26.1a6.18,6.18,0,0,0,4.75-2.13,7.84,7.84,0,0,0,1.94-5.51,7.57,7.57,0,0,0-1.87-5.35,6.17,6.17,0,0,0-4.82-2.07c-.8,0-1.55,0-2.26.1Z"/><path class="cls-2" d="M114.85,32.76c0,2.88,1.35,4.31,4,4.31s4-1.43,4-4.31V19h3.53V32.6a7.64,7.64,0,0,1-2,5.63,9,9,0,0,1-11.52-.06,7.6,7.6,0,0,1-2-5.57V19h3.88Z"/><path class="cls-2" d="M146.47,37.67c-.71.46-1.34.85-1.9,1.16a13.75,13.75,0,0,1-1.45.72,11.26,11.26,0,0,1-4.2.75,8.41,8.41,0,0,1-6.79-3,12.29,12.29,0,0,1-2.5-8,11.4,11.4,0,0,1,2.5-7.76,8.55,8.55,0,0,1,6.76-2.88,10.64,10.64,0,0,1,4,.68,13.35,13.35,0,0,1,1.42.71q.8.45,1.74,1.11l-1,2.5a13.2,13.2,0,0,0-6-1.78,4.44,4.44,0,0,0-3.7,1.91,8.84,8.84,0,0,0-1.56,5.51A9.86,9.86,0,0,0,135.32,35a4.28,4.28,0,0,0,3.6,2,10.91,10.91,0,0,0,3.38-.47,20.34,20.34,0,0,0,3.16-1.5Z"/><path class="cls-2" d="M152.51,39.89V22.05h-5.57V19H162v3h-5.57V39.89Z"/><path class="cls-2" d="M163.49,35.29c.78.36,1.44.64,2,.86s1,.38,1.37.49a9.3,9.3,0,0,0,2.85.4c2.26,0,3.38-.95,3.38-2.84,0-1.09-.86-2.09-2.59-3l-3.59-1.85-1.27-.65a5.65,5.65,0,0,1-2.59-4.79,4.73,4.73,0,0,1,1.87-3.84,6.76,6.76,0,0,1,2.2-1.09,9.82,9.82,0,0,1,2.88-.4,13,13,0,0,1,6.54,2l-1,2.41A15,15,0,0,0,170,21.58a3.83,3.83,0,0,0-2.23.63,1.72,1.72,0,0,0-.78,1.4c0,1,.88,2,2.63,2.79,1.44.69,2.56,1.24,3.37,1.66s1.31.7,1.51.84A6,6,0,0,1,177.17,34,5.7,5.7,0,0,1,175,38.7a7.69,7.69,0,0,1-4.85,1.57,15.75,15.75,0,0,1-7.7-2.44Z"/><path class="cls-3" d="M211.41,58.33H0V0H211.41ZM6.94,51.39H204.47V6.94H6.94Z"/></g></g></svg>