<svg xmlns="http://www.w3.org/2000/svg" xmlns:xlink="http://www.w3.org/1999/xlink" viewBox="0 0 146 146"><defs><style>.cls-1{fill:#ef0105;}.cls-2{fill:url(#未命名漸層_2);}.cls-3{fill:#ffd2ad;}</style><linearGradient id="未命名漸層_2" y1="73" x2="146" y2="73" gradientUnits="userSpaceOnUse"><stop offset="0" stop-color="#ef0105"/><stop offset="1" stop-color="#ffd2ad"/></linearGradient></defs><title>Attentive</title><g id="圖層_2" data-name="圖層 2"><g id="圖層_1-2" data-name="圖層 1"><circle class="cls-1" cx="73" cy="73" r="70"/><path class="cls-2" d="M73,146a73,73,0,1,1,73-73A73.09,73.09,0,0,1,73,146ZM73,6a67,67,0,1,0,67,67A67.08,67.08,0,0,0,73,6Z"/><path class="cls-3" d="M98.63,92,86.79,80.19a23.38,23.38,0,1,0-6.6,6.6L92,98.63a4.67,4.67,0,0,0,6.6-6.6ZM51,67.33A16.34,16.34,0,1,1,67.33,83.67,16.35,16.35,0,0,1,51,67.33Z"/></g></g></svg>