<svg xmlns="http://www.w3.org/2000/svg" xmlns:xlink="http://www.w3.org/1999/xlink" viewBox="0 0 130.33 36.63"><defs><style>.cls-1{fill:url(#未命名漸層_2);}.cls-2{fill:#fff;}</style><linearGradient id="未命名漸層_2" y1="18.31" x2="130.33" y2="18.31" gradientUnits="userSpaceOnUse"><stop offset="0" stop-color="#ef0105"/><stop offset="1" stop-color="#ffd2ad"/></linearGradient></defs><title>back</title><g id="圖層_2" data-name="圖層 2"><g id="圖層_1-2" data-name="圖層 1"><rect class="cls-1" width="130.33" height="36.63"/><polygon class="cls-2" points="55.19 25.21 18.14 25.21 26.94 10.97 29.5 12.55 23.52 22.21 55.19 22.21 55.19 25.21"/><path class="cls-2" d="M69.43,13.12Q71.36,13,73,13a5.7,5.7,0,0,1,3.4.88,2.89,2.89,0,0,1,1.22,2.52A2.74,2.74,0,0,1,76.11,19a3.5,3.5,0,0,1,2.22,3.44A4.17,4.17,0,0,1,78,24.15a3.4,3.4,0,0,1-1,1.3,4.61,4.61,0,0,1-1.54.81,6.62,6.62,0,0,1-2,.28l-1.81,0-2.23-.06Zm2.4,5.14h1.32a2.09,2.09,0,0,0,1.44-.46,1.57,1.57,0,0,0,.52-1.24c0-1.1-.71-1.64-2.12-1.64h-.45l-.71,0Zm0,6.28.84,0h.52c1.73,0,2.6-.76,2.6-2.28s-.91-2.18-2.74-2.18H71.83Z"/><path class="cls-2" d="M78.49,26.46l4.8-13.34h2.24l5,13.34H87.85L86.67,23.1H82.15L81,26.46Zm4.32-5.3H86l-1.6-4.52Z"/><path class="cls-2" d="M101.64,25c-.46.29-.86.54-1.21.74a8.79,8.79,0,0,1-.94.46,7.09,7.09,0,0,1-2.67.48,5.4,5.4,0,0,1-4.35-1.92,7.92,7.92,0,0,1-1.6-5.14,7.32,7.32,0,0,1,1.6-5,5.46,5.46,0,0,1,4.32-1.84,6.61,6.61,0,0,1,2.57.44,7.55,7.55,0,0,1,.91.45c.34.19.71.43,1.11.71l-.66,1.6a8.37,8.37,0,0,0-3.85-1.14,2.85,2.85,0,0,0-2.36,1.22,5.68,5.68,0,0,0-1,3.52,6.35,6.35,0,0,0,1,3.7,2.78,2.78,0,0,0,2.31,1.28,7.14,7.14,0,0,0,2.16-.3,13.53,13.53,0,0,0,2-1Z"/><path class="cls-2" d="M103.2,26.46V13.12h2.5v5.32l4.66-5.32h2.82L107.6,19.4l6.58,7.06h-3.32l-5.16-5.62v5.62Z"/></g></g></svg>