<svg xmlns="http://www.w3.org/2000/svg" xmlns:xlink="http://www.w3.org/1999/xlink" viewBox="0 0 146 146"><defs><style>.cls-1{fill:#ef0105;}.cls-2{fill:url(#未命名漸層_2);}.cls-3{fill:#ffd2ad;}</style><linearGradient id="未命名漸層_2" y1="73" x2="146" y2="73" gradientUnits="userSpaceOnUse"><stop offset="0" stop-color="#ef0105"/><stop offset="1" stop-color="#ffd2ad"/></linearGradient></defs><title>effectiveness</title><g id="圖層_2" data-name="圖層 2"><g id="圖層_1-2" data-name="圖層 1"><circle class="cls-1" cx="73" cy="73" r="70"/><path class="cls-2" d="M73,146a73,73,0,1,1,73-73A73.09,73.09,0,0,1,73,146ZM73,6a67,67,0,1,0,67,67A67.08,67.08,0,0,0,73,6Z"/><path class="cls-3" d="M43.09,72.92a30.32,30.32,0,1,1,30.32,30.31A30.31,30.31,0,0,1,43.09,72.92Zm6.07,0A24.25,24.25,0,1,0,73.41,48.66,24.25,24.25,0,0,0,49.16,72.92ZM76.44,62.3V73.18l6.69,6.69a3,3,0,0,1-4.28,4.28l-7.58-7.58a3,3,0,0,1-.89-2.14V62.3a3,3,0,0,1,6.06,0Z"/></g></g></svg>