<svg xmlns="http://www.w3.org/2000/svg" xmlns:xlink="http://www.w3.org/1999/xlink" viewBox="0 0 156.41 58.33"><defs><style>.cls-1{fill:#fff;}.cls-2{fill:#ef0105;}.cls-3{fill:url(#未命名漸層_2);}</style><linearGradient id="未命名漸層_2" x1="1.32" y1="-3.14" x2="155.09" y2="61.47" gradientUnits="userSpaceOnUse"><stop offset="0" stop-color="#ef0105"/><stop offset="1" stop-color="#ffd2ad"/></linearGradient></defs><title>Goals </title><g id="圖層_2" data-name="圖層 2"><g id="圖層_1-2" data-name="圖層 1"><rect class="cls-1" y="3.47" width="156.41" height="51.39"/><path class="cls-2" d="M45.3,31.82v-3h7.92V39.7c-2.94.25-5.37.38-7.27.38a8.39,8.39,0,0,1-6.76-2.88,12.28,12.28,0,0,1-2.41-8,11.08,11.08,0,0,1,2.7-7.89,9,9,0,0,1,6.94-2.75,13.64,13.64,0,0,1,6.89,2.31l-1.13,2.51a12.16,12.16,0,0,0-5.79-1.66,4.73,4.73,0,0,0-3.82,1.72,8.64,8.64,0,0,0-1.69,5.76A9.53,9.53,0,0,0,42.48,35a4.67,4.67,0,0,0,3.88,2.13c.42,0,.88,0,1.4,0L49.4,37V31.82Z"/><path class="cls-2" d="M58.44,37A12.25,12.25,0,0,1,56,29.25a11.71,11.71,0,0,1,2.41-7.58,8.49,8.49,0,0,1,6.89-3.06,8.48,8.48,0,0,1,6.89,3.06,11.65,11.65,0,0,1,2.41,7.58A12.19,12.19,0,0,1,72.22,37a8.28,8.28,0,0,1-6.89,3.26A8.39,8.39,0,0,1,58.44,37Zm3-2.09a4.48,4.48,0,0,0,7.7,0,10.67,10.67,0,0,0,1.38-5.7,9.54,9.54,0,0,0-1.39-5.48,4.68,4.68,0,0,0-7.69,0,9.56,9.56,0,0,0-1.38,5.45A10.67,10.67,0,0,0,61.48,35Z"/><path class="cls-2" d="M75.1,39.89,82.61,19h3.51L94,39.89H89.75L87.9,34.63H80.83L79,39.89Zm6.76-8.29h5l-2.51-7.08Z"/><path class="cls-2" d="M95.82,39.89V19H99.7V36.89h8.64v3Z"/><path class="cls-2" d="M110.13,35.29c.77.36,1.44.64,2,.86s1,.38,1.38.49a9.21,9.21,0,0,0,2.85.4q3.38,0,3.38-2.84c0-1.09-.87-2.09-2.6-3l-3.59-1.85-1.26-.65a5.63,5.63,0,0,1-2.6-4.79,4.7,4.7,0,0,1,1.88-3.84A6.61,6.61,0,0,1,113.76,19a9.82,9.82,0,0,1,2.88-.4,13,13,0,0,1,6.54,2l-1,2.41a15,15,0,0,0-5.48-1.38,3.78,3.78,0,0,0-2.22.63,1.7,1.7,0,0,0-.79,1.4c0,1,.88,2,2.63,2.79,1.44.69,2.57,1.24,3.37,1.66s1.31.7,1.52.84A6,6,0,0,1,123.81,34a5.71,5.71,0,0,1-2.23,4.72,7.67,7.67,0,0,1-4.85,1.57,15.78,15.78,0,0,1-7.7-2.44Z"/><path class="cls-3" d="M156.41,58.33H0V0H156.41ZM6.94,51.39H149.47V6.94H6.94Z"/></g></g></svg>