<svg xmlns="http://www.w3.org/2000/svg" xmlns:xlink="http://www.w3.org/1999/xlink" viewBox="0 0 171.41 58.33"><defs><style>.cls-1{fill:#fff;}.cls-2{fill:#ef0105;}.cls-3{fill:url(#未命名漸層_2);}</style><linearGradient id="未命名漸層_2" x1="2.45" y1="-5.82" x2="168.96" y2="64.15" gradientUnits="userSpaceOnUse"><stop offset="0" stop-color="#ef0105"/><stop offset="1" stop-color="#ffd2ad"/></linearGradient></defs><title>history</title><g id="圖層_2" data-name="圖層 2"><g id="圖層_1-2" data-name="圖層 1"><rect class="cls-1" x="3.47" y="3.47" width="164.47" height="51.39"/><path class="cls-2" d="M34.2,39.89V19h3.88v8.27h8.14V19H50.1V39.89H46.22V30.31H38.08v9.58Z"/><path class="cls-2" d="M54,39.89V19H58V39.89Z"/><path class="cls-2" d="M61.56,35.29c.77.36,1.44.64,2,.86s1,.38,1.38.49a9.19,9.19,0,0,0,2.84.4q3.39,0,3.39-2.84c0-1.09-.87-2.09-2.6-3L65,29.34l-1.26-.65a5.63,5.63,0,0,1-2.6-4.79A4.7,4.7,0,0,1,63,20.06,6.61,6.61,0,0,1,65.19,19a9.82,9.82,0,0,1,2.88-.4,13,13,0,0,1,6.54,2l-1,2.41a15,15,0,0,0-5.48-1.38,3.78,3.78,0,0,0-2.22.63,1.7,1.7,0,0,0-.79,1.4c0,1,.88,2,2.63,2.79,1.44.69,2.56,1.24,3.37,1.66s1.31.7,1.52.84A6,6,0,0,1,75.24,34,5.71,5.71,0,0,1,73,38.7a7.67,7.67,0,0,1-4.85,1.57,15.75,15.75,0,0,1-7.7-2.44Z"/><path class="cls-2" d="M81.31,39.89V22.05H75.74V19H90.79v3H85.22V39.89Z"/><path class="cls-2" d="M93.61,37a12.19,12.19,0,0,1-2.41-7.79,11.65,11.65,0,0,1,2.41-7.58,9.28,9.28,0,0,1,13.77,0,11.65,11.65,0,0,1,2.41,7.58A12.19,12.19,0,0,1,107.38,37a8.26,8.26,0,0,1-6.88,3.26A8.38,8.38,0,0,1,93.61,37Zm3-2.09a4.48,4.48,0,0,0,7.7,0,10.67,10.67,0,0,0,1.37-5.7,9.46,9.46,0,0,0-1.39-5.48,4.67,4.67,0,0,0-7.68,0,9.56,9.56,0,0,0-1.38,5.45A10.67,10.67,0,0,0,96.65,35Z"/><path class="cls-2" d="M113.08,39.89V19c2.69-.12,4.51-.19,5.45-.19q7.86,0,7.85,6.05a5.4,5.4,0,0,1-3.85,5.6l6.08,9.42H124L118.53,31h-.94L116.9,31v8.92Zm3.82-11.8,1.17.05H119q3.47,0,3.47-3.19t-3.91-3.16h-.67l-1,.05Z"/><path class="cls-2" d="M135.06,39.89v-8.7L128.61,19H133l4.29,8.2,4.28-8.2h3.7l-6.29,12v8.92Z"/><path class="cls-3" d="M171.41,58.33H0V0H171.41ZM6.94,51.39H164.47V6.94H6.94Z"/></g></g></svg>