<svg xmlns="http://www.w3.org/2000/svg" xmlns:xlink="http://www.w3.org/1999/xlink" viewBox="0 0 191.41 58.33"><defs><style>.cls-1{fill:#fff;}.cls-2{fill:#ef0105;}.cls-3{fill:url(#未命名漸層_2);}</style><linearGradient id="未命名漸層_2" x1="3.95" y1="-9.39" x2="187.46" y2="67.72" gradientUnits="userSpaceOnUse"><stop offset="0" stop-color="#ef0105"/><stop offset="1" stop-color="#ffd2ad"/></linearGradient></defs><title>Hong U </title><g id="圖層_2" data-name="圖層 2"><g id="圖層_1-2" data-name="圖層 1"><rect class="cls-1" x="3.47" y="3.47" width="184.47" height="51.39"/><path class="cls-2" d="M44.2,39.89V19h3.88v8.27h8.14V19H60.1V39.89H56.22V30.31H48.08v9.58Z"/><path class="cls-2" d="M65.8,37a12.19,12.19,0,0,1-2.41-7.79,11.65,11.65,0,0,1,2.41-7.58,9.28,9.28,0,0,1,13.77,0A11.65,11.65,0,0,1,82,29.25,12.19,12.19,0,0,1,79.57,37a8.28,8.28,0,0,1-6.89,3.26A8.36,8.36,0,0,1,65.8,37Zm3-2.09a4.48,4.48,0,0,0,7.7,0,10.67,10.67,0,0,0,1.38-5.7,9.46,9.46,0,0,0-1.39-5.48,4.68,4.68,0,0,0-7.69,0,9.57,9.57,0,0,0-1.37,5.45A10.67,10.67,0,0,0,68.83,35Z"/><path class="cls-2" d="M85.27,39.89V19h3.22l8.45,13.53V19h3.48V39.89H97.51L88.77,26V39.89Z"/><path class="cls-2" d="M112.19,31.82v-3h7.92V39.7c-2.94.25-5.37.38-7.26.38a8.41,8.41,0,0,1-6.77-2.88,12.28,12.28,0,0,1-2.41-8,11.08,11.08,0,0,1,2.7-7.89,9,9,0,0,1,6.94-2.75,13.61,13.61,0,0,1,6.89,2.31l-1.13,2.51a12.16,12.16,0,0,0-5.79-1.66,4.73,4.73,0,0,0-3.82,1.72,8.64,8.64,0,0,0-1.69,5.76,9.53,9.53,0,0,0,1.6,5.73,4.67,4.67,0,0,0,3.88,2.13c.42,0,.88,0,1.4,0l1.64-.09V31.82Z"/><path class="cls-2" d="M134.51,32.76c0,2.88,1.34,4.31,4,4.31s4-1.43,4-4.31V19h3.54V32.6a7.68,7.68,0,0,1-2,5.63,9,9,0,0,1-11.52-.06,7.56,7.56,0,0,1-2-5.57V19h3.88Z"/><path class="cls-3" d="M191.41,58.33H0V0H191.41ZM6.94,51.39H184.47V6.94H6.94Z"/></g></g></svg>