<svg xmlns="http://www.w3.org/2000/svg" xmlns:xlink="http://www.w3.org/1999/xlink" viewBox="0 0 211.41 58.33"><defs><style>.cls-1{fill:#fff;}.cls-2{fill:#ef0105;}.cls-3{fill:url(#未命名漸層_2);}</style><linearGradient id="未命名漸層_2" x1="5.45" y1="-12.96" x2="205.96" y2="71.3" gradientUnits="userSpaceOnUse"><stop offset="0" stop-color="#ef0105"/><stop offset="1" stop-color="#ffd2ad"/></linearGradient></defs><title>latest news</title><g id="圖層_2" data-name="圖層 2"><g id="圖層_1-2" data-name="圖層 1"><rect class="cls-1" x="3.47" y="3.47" width="204.47" height="51.39"/><path class="cls-2" d="M23.2,39.89V19h3.88V36.89h8.64v3Z"/><path class="cls-2" d="M35.72,39.89,43.23,19h3.51l7.89,20.88H50.37l-1.85-5.26H41.45L39.6,39.89Zm6.76-8.29h5L45,24.52Z"/><path class="cls-2" d="M58.29,39.89V22.05H52.72V19h15v3H62.2V39.89Z"/><path class="cls-2" d="M69.74,39.89V19H81.51v3H73.63v5.19h6.26v3H73.63v6.67h8.45v3Z"/><path class="cls-2" d="M84.08,35.29c.77.36,1.44.64,2,.86s1,.38,1.37.49a9.3,9.3,0,0,0,2.85.4q3.38,0,3.38-2.84c0-1.09-.86-2.09-2.6-3l-3.58-1.85-1.27-.65a5.66,5.66,0,0,1-2.6-4.79,4.72,4.72,0,0,1,.49-2.15,4.8,4.8,0,0,1,1.39-1.69A6.81,6.81,0,0,1,87.71,19a9.92,9.92,0,0,1,2.88-.4,12.92,12.92,0,0,1,6.54,2L96.1,23a15,15,0,0,0-5.48-1.38,3.82,3.82,0,0,0-2.22.63,1.72,1.72,0,0,0-.78,1.4c0,1,.88,2,2.63,2.79,1.44.69,2.56,1.24,3.36,1.66a16.28,16.28,0,0,1,1.52.85A6,6,0,0,1,97.76,34a5.7,5.7,0,0,1-2.22,4.72,7.71,7.71,0,0,1-4.85,1.57A15.72,15.72,0,0,1,83,37.83Z"/><path class="cls-2" d="M103.83,39.89V22.05H98.26V19h15.06v3h-5.57V39.89Z"/><path class="cls-2" d="M122.55,39.89V19h3.23l8.45,13.53V19h3.47V39.89h-2.91L126.06,26V39.89Z"/><path class="cls-2" d="M141.65,39.89V19h11.77v3h-7.89v5.19h6.26v3h-6.26v6.67H154v3Z"/><path class="cls-2" d="M159.62,39.89,154.2,19H158l3.66,14.53,2.63-9.89h3l2.32,9.89L173.14,19h3.79l-5.45,20.88H168.1l-2.54-9.83L163,39.89Z"/><path class="cls-2" d="M178.4,35.29c.77.36,1.44.64,2,.86s1,.38,1.38.49a9.21,9.21,0,0,0,2.85.4Q188,37,188,34.2c0-1.09-.87-2.09-2.6-3l-3.59-1.85-1.26-.65A5.63,5.63,0,0,1,178,23.9a4.7,4.7,0,0,1,1.88-3.84A6.61,6.61,0,0,1,182,19a9.82,9.82,0,0,1,2.88-.4,13,13,0,0,1,6.54,2l-1,2.41a15,15,0,0,0-5.48-1.38,3.78,3.78,0,0,0-2.22.63,1.7,1.7,0,0,0-.79,1.4c0,1,.88,2,2.63,2.79,1.44.69,2.57,1.24,3.37,1.66s1.31.7,1.52.85A6,6,0,0,1,192.08,34a5.68,5.68,0,0,1-2.23,4.72A7.67,7.67,0,0,1,185,40.27a15.75,15.75,0,0,1-7.7-2.44Z"/><path class="cls-3" d="M211.41,58.33H0V0H211.41ZM6.94,51.39H204.47V6.94H6.94Z"/></g></g></svg>