<svg xmlns="http://www.w3.org/2000/svg" xmlns:xlink="http://www.w3.org/1999/xlink" viewBox="0 0 146 146"><defs><style>.cls-1{fill:#ef0105;}.cls-2{fill:url(#未命名漸層_2);}.cls-3{fill:#ffd2ad;}</style><linearGradient id="未命名漸層_2" y1="73" x2="146" y2="73" gradientUnits="userSpaceOnUse"><stop offset="0" stop-color="#ef0105"/><stop offset="1" stop-color="#ffd2ad"/></linearGradient></defs><title>profession</title><g id="圖層_2" data-name="圖層 2"><g id="圖層_1-2" data-name="圖層 1"><circle class="cls-1" cx="73" cy="73" r="70"/><path class="cls-2" d="M73,146a73,73,0,1,1,73-73A73.09,73.09,0,0,1,73,146ZM73,6a67,67,0,1,0,67,67A67.08,67.08,0,0,0,73,6Z"/><path class="cls-3" d="M98.82,51.68H88.49V49.1a7.61,7.61,0,0,0-7.74-7.75H65.26a7.61,7.61,0,0,0-7.75,7.75v2.58H47.18a7.61,7.61,0,0,0-7.74,7.75V69.75A7.38,7.38,0,0,0,42,75.43v15a12.78,12.78,0,0,0,12.91,12.9H91.07A12.78,12.78,0,0,0,104,90.41v-15a7.38,7.38,0,0,0,2.58-5.68V59.43A7.61,7.61,0,0,0,98.82,51.68ZM62.67,49.1a2.44,2.44,0,0,1,2.59-2.58H80.75a2.44,2.44,0,0,1,2.58,2.58v2.58H62.67ZM44.6,59.43a2.44,2.44,0,0,1,2.58-2.59H98.82a2.44,2.44,0,0,1,2.58,2.59V69.75a2.44,2.44,0,0,1-2.58,2.58H80.75V69.75a2.44,2.44,0,0,0-2.59-2.58H67.84a2.44,2.44,0,0,0-2.58,2.58v2.58H47.18a2.44,2.44,0,0,1-2.58-2.58Zm25.82,12.9h5.16V77.5H70.42Zm28.4,18.08a7.61,7.61,0,0,1-7.75,7.74H54.93a7.61,7.61,0,0,1-7.75-7.74V77.5H65.26v2.58a2.44,2.44,0,0,0,2.58,2.58H78.16a2.44,2.44,0,0,0,2.59-2.58V77.5H98.82Z"/></g></g></svg>