<svg xmlns="http://www.w3.org/2000/svg" xmlns:xlink="http://www.w3.org/1999/xlink" viewBox="0 0 146 146"><defs><style>.cls-1{fill:#ef0105;}.cls-2{fill:url(#未命名漸層_2);}.cls-3{fill:#ffd2ad;}</style><linearGradient id="未命名漸層_2" y1="73" x2="146" y2="73" gradientUnits="userSpaceOnUse"><stop offset="0" stop-color="#ef0105"/><stop offset="1" stop-color="#ffd2ad"/></linearGradient></defs><title>THE Best</title><g id="圖層_2" data-name="圖層 2"><g id="圖層_1-2" data-name="圖層 1"><circle class="cls-1" cx="73" cy="73" r="70"/><path class="cls-2" d="M73,146a73,73,0,1,1,73-73A73.09,73.09,0,0,1,73,146ZM73,6a67,67,0,1,0,67,67A67.08,67.08,0,0,0,73,6Z"/><path class="cls-3" d="M86,66.42H62.68a1.75,1.75,0,0,0-1.75,1.75V101H87.72V68.17A1.74,1.74,0,0,0,86,66.42Z"/><path class="cls-3" d="M86.61,45.06l-7.27-1.15-3.18-7.13a2,2,0,0,0-1.83-1.11,1.8,1.8,0,0,0-1.61,1.07l-3.33,7-7.27,1A1.91,1.91,0,0,0,61,48l5.2,5.2-1.34,7.24a1.92,1.92,0,0,0,2.76,2.07l6.54-3.33.16.07,6.31,3.41a1.9,1.9,0,0,0,2.8-2L82.29,53.4l5.32-5.09A1.88,1.88,0,0,0,86.61,45.06Z"/><path class="cls-3" d="M55.57,63.75,51,63l-2-4.52a1.26,1.26,0,0,0-1.16-.7,1.14,1.14,0,0,0-1,.68l-2.11,4.44L40,63.53a1.21,1.21,0,0,0-.71,2.06l3.3,3.3-.85,4.59a1.22,1.22,0,0,0,1.75,1.31l4.15-2.11.1,0,4,2.16a1.2,1.2,0,0,0,1.78-1.24L52.83,69l3.37-3.23A1.19,1.19,0,0,0,55.57,63.75Z"/><path class="cls-3" d="M107.46,69.64l-4-.63-1.73-3.89a1.11,1.11,0,0,0-1-.6,1,1,0,0,0-.88.58l-1.82,3.83-4,.52a1,1,0,0,0-.61,1.77l2.84,2.84-.73,4a1,1,0,0,0,1.5,1.13l3.57-1.82.09,0,3.44,1.86a1,1,0,0,0,1.52-1.06l-.62-4,2.9-2.78A1,1,0,0,0,107.46,69.64Z"/><path class="cls-3" d="M54.42,77.9H41.37a1.75,1.75,0,0,0-1.75,1.75V101H56.17V79.65A1.75,1.75,0,0,0,54.42,77.9Z"/><path class="cls-3" d="M107.28,81.73h-13a1.75,1.75,0,0,0-1.75,1.75V101H109V83.48A1.75,1.75,0,0,0,107.28,81.73Z"/></g></g></svg>